<svg xmlns="http://www.w3.org/2000/svg" xmlns:xlink="http://www.w3.org/1999/xlink" width="396" height="423.834" viewBox="0 0 396 423.834">
  <defs>
    <clipPath id="clip-path">
      <rect id="Rectángulo_461386" data-name="Rectángulo 461386" width="423.833" height="357.224" fill="#c0f1e1"/>
    </clipPath>
    <clipPath id="clip-path-2">
      <rect id="Rectángulo_461994" data-name="Rectángulo 461994" width="328.317" height="360.169" fill="none"/>
    </clipPath>
  </defs>
  <g id="Grupo_1195016" data-name="Grupo 1195016" transform="translate(-1017.711 -22320.513)">
    <g id="Grupo_1194706" data-name="Grupo 1194706" transform="translate(19.389 21253.35)">
      <g id="Grupo_1194449" data-name="Grupo 1194449" transform="translate(1017.999 1490.996) rotate(-90)">
        <g id="Grupo_1194448" data-name="Grupo 1194448" transform="translate(0 0)" clip-path="url(#clip-path)">
          <path id="Trazado_1013831" data-name="Trazado 1013831" d="M11.44,30.028H192.578c6.292,0,11.44-6.756,11.44-15.014S198.87,0,192.578,0H11.44C5.148,0,0,6.756,0,15.014S5.148,30.028,11.44,30.028" transform="translate(169.153 63.864)" fill="#c0f1e1"/>
          <path id="Trazado_1013832" data-name="Trazado 1013832" d="M11.44,30.028H130.92c6.292,0,11.44-6.756,11.44-15.014S137.213,0,130.92,0H11.44C5.148,0,0,6.756,0,15.014S5.148,30.028,11.44,30.028" transform="translate(0 63.864)" fill="#c0f1e1"/>
          <path id="Trazado_1013833" data-name="Trazado 1013833" d="M11.44,30.028h95.435c6.292,0,11.44-6.756,11.44-15.014S113.168,0,106.875,0H11.44C5.148,0,0,6.756,0,15.014S5.148,30.028,11.44,30.028" transform="translate(284.148 0)" fill="#c0f1e1"/>
          <path id="Trazado_1013834" data-name="Trazado 1013834" d="M11.44,30.028H87.708c6.292,0,11.44-6.756,11.44-15.014S94,0,87.708,0H11.44C5.148,0,0,6.756,0,15.014S5.148,30.028,11.44,30.028" transform="translate(108.66 0)" fill="#c0f1e1"/>
          <path id="Trazado_1013835" data-name="Trazado 1013835" d="M11.44,30.028H26.86c6.292,0,11.44-6.756,11.44-15.014S33.152,0,26.86,0H11.44C5.148,0,0,6.756,0,15.014S5.148,30.028,11.44,30.028" transform="translate(226.613 0)" fill="#c0f1e1"/>
          <path id="Trazado_1013836" data-name="Trazado 1013836" d="M11.44,30.028H35.4c6.292,0,11.44-6.756,11.44-15.014S41.7,0,35.4,0H11.44C5.148,0,0,6.756,0,15.014S5.148,30.028,11.44,30.028" transform="translate(339.313 216.509)" fill="#c0f1e1"/>
          <path id="Trazado_1013837" data-name="Trazado 1013837" d="M11.44,30.028H121.217c6.292,0,11.44-6.757,11.44-15.014S127.51,0,121.217,0H11.44C5.148,0,0,6.756,0,15.014S5.148,30.028,11.44,30.028" transform="translate(132.966 327.196)" fill="#c0f1e1"/>
          <path id="Trazado_1013838" data-name="Trazado 1013838" d="M11.44,30.028H31.618c6.292,0,11.44-6.757,11.44-15.014S37.911,0,31.618,0H11.44C5.148,0,0,6.756,0,15.014S5.148,30.028,11.44,30.028" transform="translate(74.812 327.196)" fill="#c0f1e1"/>
          <path id="Trazado_1013839" data-name="Trazado 1013839" d="M11.44,30.028h238.79c6.292,0,11.44-6.756,11.44-15.014S256.523,0,250.231,0H11.44C5.148,0,0,6.756,0,15.014S5.148,30.028,11.44,30.028" transform="translate(73.182 113.078)" fill="#c0f1e1"/>
          <path id="Trazado_1013840" data-name="Trazado 1013840" d="M11.44,30.029H295.992c6.292,0,11.44-6.757,11.44-15.014S302.284,0,295.992,0H11.44C5.148,0,0,6.757,0,15.014S5.148,30.029,11.44,30.029" transform="translate(116.401 164.793)" fill="#c0f1e1"/>
          <path id="Trazado_1013841" data-name="Trazado 1013841" d="M11.44,30.028H295.992c6.292,0,11.44-6.756,11.44-15.014S302.284,0,295.992,0H11.44C5.148,0,0,6.756,0,15.014S5.148,30.028,11.44,30.028" transform="translate(15.438 216.509)" fill="#c0f1e1"/>
          <path id="Trazado_1013842" data-name="Trazado 1013842" d="M11.44,30.029H303.167c6.292,0,11.44-6.756,11.44-15.014S309.459,0,303.167,0H11.44C5.148,0,0,6.756,0,15.014S5.148,30.029,11.44,30.029" transform="translate(58.564 268.224)" fill="#c0f1e1"/>
          <path id="Trazado_1013843" data-name="Trazado 1013843" d="M111.218,0c-2.661,1.939-4.314,5.633-4.305,9.624.008,3.968,1.659,7.633,4.305,9.561H0c3.077-1.576,5.087-5.506,5.023-9.8C4.96,5.242,2.971,1.52,0,0Z" transform="translate(202.228 93.893)" fill="#c0f1e1"/>
          <path id="Trazado_1013844" data-name="Trazado 1013844" d="M134.029,0c-3.207,2.191-5.2,6.368-5.189,10.879.011,4.486,2,8.629,5.189,10.808H0c3.708-1.781,6.131-6.224,6.053-11.074C5.978,5.926,3.581,1.718,0,0Z" transform="translate(94.63 246.537)" fill="#c0f1e1"/>
          <path id="Trazado_1013845" data-name="Trazado 1013845" d="M111.218,0c-2.661,2.191-4.314,6.368-4.305,10.879.008,4.486,1.659,8.629,4.305,10.808H0c3.077-1.781,5.087-6.224,5.023-11.074C4.96,5.926,2.971,1.718,0,0Z" transform="translate(138.686 143.106)" fill="#c0f1e1"/>
          <path id="Trazado_1013846" data-name="Trazado 1013846" d="M130.132,0c-2.661,2.191-4.314,6.368-4.305,10.879.008,4.486,1.659,8.629,4.305,10.808H0c3.077-1.781,5.087-6.224,5.023-11.074C4.96,5.926,2.971,1.718,0,0Z" transform="translate(175.381 194.822)" fill="#c0f1e1"/>
        </g>
      </g>
    </g>
    <g id="Grupo_1194917" data-name="Grupo 1194917" transform="translate(1051.841 22384.176)">
      <g id="Grupo_1194916" data-name="Grupo 1194916" transform="translate(0 0.001)" clip-path="url(#clip-path-2)">
        <path id="Trazado_1015187" data-name="Trazado 1015187" d="M382.97,34.929c3.99-2.025,9.041,1.971,8.008,6.294-.67,3.8-5.474,6.01-8.7,3.765-3.765-2.089-3.428-8.565.691-10.059" transform="translate(-275.682 -24.97)" fill="#fdfdfd"/>
        <path id="Trazado_1015188" data-name="Trazado 1015188" d="M18.849,163.527c17.328-.118,34.666.064,51.994-.15l.075.021a8.9,8.9,0,0,0,.359,3.974,3.629,3.629,0,0,0,3.091,1.457c.273.8.145,1.912,1.05,2.341a7.9,7.9,0,0,0,3.6.536c31.072-.145,62.144.1,93.216-.064,1.73-.011,4.066-.021,4.826-1.939.643-1.869.273-3.91.354-5.849l-2.26-.193v-.1c16.963-.1,33.922-.059,50.885-.1.23,14.146-.064,28.3.241,42.438.005.343.011,1.034.011,1.376a55.25,55.25,0,0,0-21.366-22.068,58.957,58.957,0,0,0-23.552-7.483c-11.9-.937-24.237,1.548-34.371,8.013a56.848,56.848,0,0,0-25.86,35.925c-5.988-.536-12.014-.07-18.013-.268-1.4.1-3.235-.337-4.2.964a1.724,1.724,0,0,0,1.741,2.244c6.347.252,12.727-.022,19.074.16l.83.487c-.262,1.677-.525,3.358-.627,5.056-5.962-.2-11.923-.1-17.885-.064-1.13.038-2.619-.064-3.171,1.168a1.811,1.811,0,0,0,2.094,2.244c6.288-.059,12.593.021,18.886-.123.027,1.178.113,2.357.188,3.54-.209.648.193,2.089-.889,2.03-5.881.123-11.768-.021-17.644.075-.771.08-1.693-.038-2.277.584-1.023.905-.08,2.743,1.211,2.684,6.706.246,13.423-.086,20.134.016,2.63,16.294,12.716,31.543,27.4,39.358-15.662.632-31.361.1-47.034.332a1.692,1.692,0,0,0-1.778,2.394c.541,1.055,1.891.916,2.893.991,12.85-.1,25.7.005,38.544-.182,4.714-.107,9.438.289,14.135-.177a55.8,55.8,0,0,0,31.458,3.674c.284,1.13.578,2.255.878,3.391-1.532-.043-3.059-.193-4.58-.3l-.557-1.393c-8.415-.321-16.84.246-25.255.305-18.725.123-37.457.016-56.182.129a1.636,1.636,0,0,0-1.537,1.028c-.557,1.194.787,2.421,1.971,2.266,13.578.091,27.162,0,40.74.038,12.464.043,24.923.07,37.382-.209a9.589,9.589,0,0,0,.675,3.08c.578.525,1.237.948,1.848,1.446.059.911-.568,1.848-.316,2.78a7.308,7.308,0,0,0,1.955,1.912q.169,1.125.354,2.266c.525.38,1.055.76,1.585,1.146.311,1.184.343,3.181,2,3.187,2.453-.225,4.751-1.195,7.1-1.875,4.772-1.553,9.706-2.517,14.553-3.814.648,1.082,1.816.493,2.785.257,4.773-1.43,9.609-2.646,14.484-3.685.187,53.162.011,106.328.08,159.49q-103.636.048-207.278.032l-.048-.043q.185-96.534.021-193.074c-.016-3.058-.209-6.122.048-9.175,1.05-11.388,1.457-22.823,2.341-34.222.027-1.216.761-3.465-1.232-3.3.369-7.322,1.393-14.6,1.848-21.918.161-1.751-1.639-2.421-3.08-2.341q.217-16.366.054-32.727M86.516,212.5a24.954,24.954,0,0,0-4.108,3.267c-.466-1.382-1.345-2.892-2.946-3.064-6.39-.289-12.786-.086-19.181-.086-5.378-.027-10.761-.311-16.128.021a3.666,3.666,0,0,0-3.69,3.653c-.134,2.855-.016,5.715-.048,8.57.252,9.111-.016,18.228.15,27.339-.032,2.153,2.212,3.433,4.162,3.257q16.342.04,32.689.037c1.95.123,4.237-.8,4.687-2.9.466-2.609.123-5.281.209-7.917-.37-7.644.1-15.3-.343-22.946a62.592,62.592,0,0,1,7.933-7.418,23.872,23.872,0,0,0,3.487-2.994c.236-1.12-1.1-1.837-2.046-1.484a13.828,13.828,0,0,0-4.826,2.662m3.728,57.323a42.848,42.848,0,0,0-7.959,5.908c.5-2.1-2.127-3.556-3.964-3.508-11.2-.086-22.406-.032-33.606-.032a3.643,3.643,0,0,0-4.13,3.562c-.139,11.6.07,23.2-.16,34.795.005,1.323.038,2.844,1.119,3.8,1.393,1.4,3.562.857,5.33,1,5.9.2,11.794.021,17.692.075,4.837-.23,9.69.145,14.51-.247a3.478,3.478,0,0,0,3.155-3.5c.241-9.989.032-20-.113-29.979a87.751,87.751,0,0,1,8.7-8.056,12.281,12.281,0,0,0,2.893-2.7c.118-1.837-2.325-1.762-3.466-1.119M100,299.984a1.552,1.552,0,0,0,.45,3.01c4.472.348,8.961-.021,13.444.081,19.267-.054,38.539-.091,57.806.038,1.141.037,2.694-.654,2.544-2.009-.7-1.634-2.748-1.312-4.178-1.4q-32.941-.016-65.872.113a22.356,22.356,0,0,0-4.194.171M89.221,331.512a43.824,43.824,0,0,0-6.963,5.26c.37-2.035-1.784-3.873-3.771-3.728-11.071-.1-22.143-.011-33.209-.075-2.03-.139-4.665.969-4.713,3.3-.434,7.327.145,14.66-.134,21.993-.053,4.274-.011,8.549-.032,12.823.075,1.446-.086,3.257,1.286,4.189,1.109,1.05,2.71.868,4.114.905q16.093-.016,32.186.038a3.8,3.8,0,0,0,4.21-4.023c-.177-9.872.22-19.754-.236-29.621a58.071,58.071,0,0,1,9.641-8.731c.8-.712,2.389-1.435,1.692-2.748-1.194-1.071-2.892-.257-4.071.412m10.873,11.495c-1.993.525-1.087,3.61.862,3.225,31.624.075,63.247-.027,94.871.054.969-.086,2.164.155,2.925-.621a1.732,1.732,0,0,0-1.4-2.742c-23.718-.166-47.435-.086-71.153-.08-8.7.059-17.413-.113-26.1.166m-.536,8.988a1.659,1.659,0,0,0,.852,3c2.86.257,5.737.048,8.6.086,14.285-.166,28.571-.091,42.856-.1,14.644.027,29.294-.225,43.943-.123a9.611,9.611,0,0,0,2.25-.193,1.74,1.74,0,0,0,.4-2.833,19.768,19.768,0,0,0-4.285-.209c-30.344.118-60.682-.005-91.025.054a10.352,10.352,0,0,0-3.594.316m-.07,9.1a1.638,1.638,0,0,0,.991,2.855q35.368-.008,70.741-.011c1.189.1,2.785-.487,2.678-1.928-.032-1.195-1.264-1.377-2.2-1.329-23.209-.032-46.423.011-69.632.011-.857.091-1.859-.166-2.582.4m-9.588,30a50.284,50.284,0,0,0-7.553,5.683c.445-1.955-1.976-3.707-3.84-3.546-11.264-.177-22.534-.032-33.8-.113a3.831,3.831,0,0,0-4.156,4.216c0,11.795-.139,23.589-.059,35.384A3.413,3.413,0,0,0,44.26,436.2c10.691.091,21.388-.011,32.084.022,1.58-.086,3.444.214,4.7-.98,1.077-.873,1.189-2.33,1.237-3.6.15-9.609-.016-19.213-.23-28.817a97.2,97.2,0,0,1,8.784-8.088,13.105,13.105,0,0,0,2.989-2.737c.032-2.137-2.689-1.628-3.921-.9m10.134,12.336c-.787.391-1.441,1.741-.6,2.4.611.83,1.7.766,2.625.793q47.13-.048,94.266-.043c.975-.048,2.383-.032,2.667-1.232a1.428,1.428,0,0,0-1.189-1.912,42.71,42.71,0,0,0-5.238-.134c-23.739.08-47.484-.011-71.223.021-7.1.08-14.221-.182-21.307.107m-.5,9.149a1.66,1.66,0,0,0,.434,2.817,43.3,43.3,0,0,0,6.353.182q45.515.064,91.036-.23a1.561,1.561,0,0,0,1.446-2.308c-.5-1.162-2.014-.766-3.01-.9q-46.881,0-93.762.011c-.83.064-1.805-.134-2.5.429m.552,8.57c-1.934.316-1.034,3.637.879,3.155,22.138.016,44.275-.054,66.413.005a31.345,31.345,0,0,0,5.356-.182,1.588,1.588,0,0,0,.8-2.373c-.621-.959-1.923-.653-2.882-.771-23.52.075-47.061-.22-70.569.166" transform="translate(-13.641 -118.634)" fill="#fdfdfd"/>
        <path id="Trazado_1015189" data-name="Trazado 1015189" d="M432.812,419.156c7.162.225,14.339.107,21.506-.043,6.17.011,12.341-.1,18.511-.054,2.93.059,5.876-.236,8.79.236-.819,1.639-1.6,3.294-2.5,4.9-3.98,6.594-7.349,13.525-10.648,20.472-.177.5-.343,1-.493,1.511,3.4.107,5.779,2.673,8.822,3.776,2.121.852,4.06,2.121,6.219,2.887,3.749,1.28,7.247,3.166,10.932,4.617.021.364.043.734.07,1.1a7.148,7.148,0,0,1,3.246-.021c-5.506,3.444-12.148,4.457-18.512,5.04a44.343,44.343,0,0,1-29.369-9.808,42.5,42.5,0,0,1-15.7-25.549c12.164.241,24.334-.112,36.5.027,1.35-.048,3.68.22,3.674-1.746.182-1.644-1.955-1.842-3.149-1.88-12.5-.032-25.009-.027-37.51-.155l-.359-.016c.021-1.767,0-3.535-.027-5.3" transform="translate(-314.28 -304.268)" fill="#fdfdfd"/>
        <path id="Trazado_1015190" data-name="Trazado 1015190" d="M996.678,508.658c4.028.027,8.061-.064,12.095.059.064,1.007.1,2.02.161,3.032-.487,1.666-1.141,3.883-3.139,4.215-2.335.295-4.869.541-7.113-.311-2.534-1.307-1.746-4.665-2-7" transform="translate(-723.724 -369.35)" fill="#fdfdfd"/>
        <path id="Trazado_1015191" data-name="Trazado 1015191" d="M107.467,570.21c12.041.011,24.093-.054,36.134.075.15,1.05.3,2.1.423,3.171-8.313,6.68-14.7,15.319-20.97,23.852-3.042-3.208-5.962-6.545-9.084-9.673-1.2-1.264-3.5-2.475-4.837-.723-1.146.868-.2,2.089.477,2.887,3.787,4.606,7.612,9.181,11.372,13.819a6.7,6.7,0,0,0,1.96,1.805c1.275.07,1.923-1.291,2.635-2.126q4.146-6.211,8.806-12.063a99.541,99.541,0,0,1,9.352-10.889c.295,8.544.145,17.1.214,25.651-.123.664.219,1.923-.734,2.084a37.738,37.738,0,0,1-5.828.145c-9.3.064-18.6-.005-27.9.016a10.483,10.483,0,0,1-2.009-.209,20.2,20.2,0,0,1-.139-5.244c.246-3.567-.145-7.135-.016-10.7.262-7.29-.016-14.585.145-21.875" transform="translate(-77.867 -414.045)" fill="#fdfdfd"/>
        <path id="Trazado_1015192" data-name="Trazado 1015192" d="M107.929,1011.667c12.078-.364,24.178-.064,36.262.064.123,1.109.246,2.218.354,3.337-8.158,6.615-14.671,15-20.756,23.493-2.651-2.378-4.81-5.228-7.37-7.7-1.543-1.473-3-3.637-5.378-3.573-1.087.064-2.63,1.569-1.628,2.582,3.953,5.131,8.275,9.968,12.2,15.126.734.777,1.714,2.309,2.951,1.564,1.762-1.526,2.732-3.728,4.124-5.56a181.576,181.576,0,0,1,15.506-19.186c.407,8.356.161,16.733.263,25.1-.086.927.321,2.8-1.205,2.528-11.768.038-23.536.059-35.3,0-.027-12.593-.011-25.191-.021-37.778" transform="translate(-78.371 -734.482)" fill="#fdfdfd"/>
        <path id="Trazado_1015193" data-name="Trazado 1015193" d="M244.522,8.283A21.418,21.418,0,0,1,264.276.206,20.37,20.37,0,0,1,276.633,6.6c4.344,4.3,6.3,10.5,6.3,16.508,7.333.011,14.665-.027,22,.043a8.582,8.582,0,0,1,7.5,4.912,12.094,12.094,0,0,1,.862,5.394v.439c-.021,3.68-.113,7.36-.054,11.039v.1c-.038,1.414.139,2.935-.5,4.248-.728.862-1.982.766-2.994.846-29.1-.123-58.191-.011-87.286-.086a75.239,75.239,0,0,0-10.011.161,3.629,3.629,0,0,1-3.091-1.457,8.9,8.9,0,0,1-.359-3.974c.113-3.766.059-7.536-.032-11.3a9.689,9.689,0,0,1,3.851-8.64c2.164-1.569,4.933-1.644,7.5-1.687,6.454.021,12.909-.016,19.363-.011.289-5.238,1.489-10.659,4.832-14.842m14.5,1.677c-4.119,1.494-4.456,7.97-.691,10.059,3.224,2.245,8.029.032,8.7-3.765,1.034-4.322-4.017-8.318-8.008-6.294" transform="translate(-151.733 -0.001)" fill="#efb14a"/>
        <path id="Trazado_1015194" data-name="Trazado 1015194" d="M589.963,122.148c17.933.048,35.866-.016,53.8.032a7.793,7.793,0,0,1,7.756,5.769q.04,42.848.021,85.7c.021,11.966.059,23.927-.112,35.887a28.44,28.44,0,0,0-6.642-.337c-1.248-1.184-2.507-2.346-3.712-3.562,1.066-2.3.536-4.88.621-7.317-.118-2.416.311-4.88-.182-7.263l-.568-.359-.38.08c3.091-4.462,4.5-9.786,5.79-14.987a59.535,59.535,0,0,0-1.607-30.36c-.75-6.8-.38-13.643-.445-20.466-.064-7.649.134-15.308-.107-22.952-.846-.107-1.693-.177-2.533-.22-.07-2.968.059-5.935-.15-8.9a99.421,99.421,0,0,0-11.157-.273c-12.641-.016-25.282.064-37.917,0-.129-3.38.043-6.754-.021-10.129-.825.027-1.639.059-2.453.091Z" transform="translate(-428.394 -88.696)" fill="#1b4973"/>
        <path id="Trazado_1015195" data-name="Trazado 1015195" d="M589.769,123.509c.814-.032,1.628-.064,2.453-.091.064,3.375-.107,6.749.021,10.129,12.635.064,25.276-.016,37.917,0a99.358,99.358,0,0,1,11.157.273c.209,2.962.08,5.929.15,8.9.144,10.4-.107,20.815.027,31.217a6.872,6.872,0,0,1-.654,2.951c-.305-14.14-.011-28.292-.241-42.438-16.963.043-33.921.005-50.885.1-.059-3.68.032-7.36.054-11.039" transform="translate(-428.199 -89.619)" fill="#113a62"/>
        <path id="Trazado_1015196" data-name="Trazado 1015196" d="M814.1,143.329c.386,3.573.08,7.172.15,10.755q-.008,45.78.016,91.566c.043,6.728-.225,13.471.1,20.193a13.481,13.481,0,0,0,2.5-4.253c3.975-9.266,8.131-18.474,12.877-27.381,2.48-4.151,5.688-8.211,10.043-10.488.284,8.752.412,17.51.273,26.262-.075,5.008.043,10.027-.434,15.019-.1-.171-.3-.514-.4-.686-1.971,3.482-4,6.942-5.854,10.488a74.694,74.694,0,0,1-4.58,8.035c-3.706-4.2-7.868-7.96-11.661-12.078-1.093-1.221-2.533-2.175-3.257-3.691.038-.718.091-1.436.145-2.153.171-11.961.134-23.921.113-35.887q.049-42.848-.021-85.7" transform="translate(-590.978 -104.077)" fill="#7899e1"/>
        <path id="Trazado_1015197" data-name="Trazado 1015197" d="M1077.031,713.505c.123-.021.37-.064.493-.091.091,2.11.064,4.221-.011,6.331-.145,0-.428.005-.568.005q.072-3.126.086-6.245" transform="translate(-782.009 -518.036)" fill="#7899e1"/>
        <path id="Trazado_1015198" data-name="Trazado 1015198" d="M947.647,1236.991c.193.262.578.793.771,1.061-.166,1.527-.321,3.058-.52,4.591-.739-.054-1.468-.1-2.2-.15-.059,1.977-.2,3.953-.375,5.924a13.281,13.281,0,0,1-.3-6.321c.809-.166,1.612-.332,2.432-.487.075-1.543.139-3.085.188-4.617" transform="translate(-686.048 -898.224)" fill="#07325c"/>
        <path id="Trazado_1015199" data-name="Trazado 1015199" d="M322.03,168.661c.637-1.312.461-2.833.5-4.248l2.26.193c-.081,1.939.289,3.98-.354,5.849-.761,1.918-3.1,1.928-4.826,1.939-31.072.166-62.144-.08-93.216.064a7.9,7.9,0,0,1-3.6-.536c-.905-.429-.777-1.537-1.05-2.341a75.245,75.245,0,0,1,10.011-.161c29.1.075,58.191-.038,87.286.086,1.012-.08,2.266.016,2.994-.846" transform="translate(-161.012 -119.387)" fill="#bec0c4"/>
        <path id="Trazado_1015200" data-name="Trazado 1015200" d="M777.079,193.887c.841.043,1.687.113,2.534.22.241,7.644.043,15.3.107,22.952.064,6.824-.305,13.669.445,20.467a67.326,67.326,0,0,0-3.7-8.094c0-.343-.005-1.034-.011-1.376a6.879,6.879,0,0,0,.654-2.951c-.134-10.4.118-20.815-.027-31.217" transform="translate(-563.81 -140.789)" fill="#164168"/>
        <path id="Trazado_1015201" data-name="Trazado 1015201" d="M415.024,223.279c10.134-6.465,22.47-8.95,34.372-8.013a58.957,58.957,0,0,1,23.551,7.483,55.253,55.253,0,0,1,21.367,22.068,67.342,67.342,0,0,1,3.7,8.094,59.537,59.537,0,0,1,1.607,30.359c-1.286,5.2-2.7,10.525-5.79,14.987a63.908,63.908,0,0,1-5.72,8.211,77.952,77.952,0,0,1-7.14,7.247,52.63,52.63,0,0,1-11.018,7.3c-1.13.546-2.266,1.077-3.39,1.623-4.071,1.4-8.067,3.042-12.33,3.755a55.8,55.8,0,0,1-31.458-3.674c-2.287-1.05-4.532-2.2-6.76-3.358-14.682-7.815-24.768-23.064-27.4-39.358-.257-1.789-.407-3.589-.535-5.389-.075-1.184-.161-2.362-.188-3.54q-.024-1.615.075-3.224c.1-1.7.364-3.38.627-5.056.171-1.2.327-2.4.568-3.589a56.848,56.848,0,0,1,25.86-35.925m22.336-.589a47.292,47.292,0,0,0-18.918,7.1c-16.5,9.877-25.892,30.29-22.738,49.246a48.859,48.859,0,0,0,14.8,27.6c6.84,6.208,15.185,10.986,24.339,12.679a48.785,48.785,0,0,0,31.506-4.049,50,50,0,0,0,19.7-17.762c10.713-15.908,10.348-38.319-.691-53.965A51.94,51.94,0,0,0,469.4,228.925a50.186,50.186,0,0,0-32.036-6.235" transform="translate(-281.66 -156.174)" fill="#1c2f3c"/>
        <path id="Trazado_1015202" data-name="Trazado 1015202" d="M776.183,595.707c1.366-.177,2.732-.375,4.1-.541.723,1.516,2.164,2.469,3.257,3.69,3.792,4.119,7.954,7.879,11.661,12.078,2.191,2.394,4.515,4.66,6.663,7.092a23.909,23.909,0,0,0,4.146,3.84,55.873,55.873,0,0,1-6.556-.354c-.819,2.855,1.532,5.057,3.969,5.962-2.427,2.946-6.069,4.408-8.865,6.936-4.869-4.425-9.39-9.207-13.98-13.91-2.212-2.517-4.676-4.8-7.119-7.081a42.291,42.291,0,0,1-5.4-6.021c-1.146-1.623.22-3.5,1.168-4.837a46.01,46.01,0,0,1,6.958-6.856" transform="translate(-557.397 -432.172)" fill="#1c2f3c"/>
        <path id="Trazado_1015203" data-name="Trazado 1015203" d="M456.471,241.645a50.187,50.187,0,0,1,32.036,6.235A51.936,51.936,0,0,1,504.469,262.5c11.04,15.646,11.4,38.056.691,53.965a50,50,0,0,1-19.7,17.762,48.784,48.784,0,0,1-31.506,4.049c-9.154-1.693-17.5-6.471-24.339-12.678a48.86,48.86,0,0,1-14.8-27.6c-3.155-18.956,6.24-39.369,22.738-49.246a47.293,47.293,0,0,1,18.919-7.1m-6.155,6.572a43.838,43.838,0,0,0-17.2,10.129,45.553,45.553,0,0,0-12.052,18.94c-.284,1.318-.579,2.63-.873,3.948-.241,1.071-.487,2.142-.643,3.235a25.621,25.621,0,0,0-.241,5.549c.027,1.762.048,3.53.027,5.3l.359.016a13.292,13.292,0,0,0,.487,3.755,42.5,42.5,0,0,0,15.7,25.55,44.343,44.343,0,0,0,29.369,9.808c6.363-.584,13-1.6,18.511-5.04l.289.054a45.44,45.44,0,0,0,22.116-26.728l.193.059a46.227,46.227,0,0,0-1.773-29.781,48.834,48.834,0,0,0-8.19-12.56,25.753,25.753,0,0,0-4.322-4.007,34.1,34.1,0,0,0-8.56-5.581c-10.236-4.933-22.336-6.235-33.2-2.641" transform="translate(-300.772 -175.129)" fill="#d4d5d7"/>
        <path id="Trazado_1015204" data-name="Trazado 1015204" d="M929,257.728c2.03-.648,3.766,1,5.238,2.148a8.809,8.809,0,0,0,4.349,1.955c2.5.043,4.724,1.318,7.129,1.843-2.137-.755-4.28-1.494-6.471-2.052-.23-.38-.455-.755-.675-1.13,3-3.171,9.588-.927,9.031,3.765,2.234.214,4.789.954,5.79,3.187,1.184,2.9-.321,5.871-1.151,8.64-.391.916-.477,2.1-1.307,2.748-.6.466-1.216.911-1.794,1.4a12.537,12.537,0,0,1-2.292-.3c-1.082-.927-1.034-2.533-1.441-3.8l-.53.809a27.347,27.347,0,0,0-1.944-6.47c-2.153-1.853-5.33-1.682-7.949-1.152-2.833.434-5.565,1.676-8.468,1.441-1.736-.337-3.562-.166-5.244-.67-1.355-.434-1-2.035-.616-3.037,1.516-4.012,4.783-7.092,8.345-9.325m-2.346,2.314c.712,1.034,2.094,1.05,3.16,1.526,2.041.557,3.562,2.089,5.442,2.983a12.025,12.025,0,0,0-8.6-4.51m9.143,4.494c-.107.177-.327.53-.434.712-4.055,1.821-8.651,1.387-12.914.68a2.589,2.589,0,0,0,1.521.873,24.4,24.4,0,0,0,10.7-.584c2.791-.862,4.955,1.784,7.676,1.928,1.494-1.366,3.578-2.073,4.73-3.8-1.923.685-3.278,2.464-5.27,2.946-2.217-.279-4.119-1.655-6-2.759m9.979,3.069c.466,1.259,1.1,2.453,1.543,3.723.766,2.244.493,4.655.8,6.979.268-.509.788-.943.723-1.575a17.882,17.882,0,0,0-1.719-7.858c-.252-.61-.852-.91-1.35-1.269" transform="translate(-668.269 -187.04)" fill="#1a2f3f"/>
        <path id="Trazado_1015205" data-name="Trazado 1015205" d="M1126.026,1218.023c2.855-.745,5.661-1.816,8.618-2.057q-5.013,1.759-10.188,3.037c-2.5.675-4.917,1.709-7.515,1.977,2.9-1.339,6.085-1.88,9.084-2.957" transform="translate(-811.052 -882.957)" fill="#1a2f3f"/>
        <path id="Trazado_1015206" data-name="Trazado 1015206" d="M468.483,261.453c10.863-3.594,22.962-2.293,33.2,2.641-6.958,8.774-14.05,17.472-20.349,26.744-12.866.043-25.737.123-38.608.145a17.449,17.449,0,0,1-3.5-.461,45.554,45.554,0,0,1,12.052-18.94,43.837,43.837,0,0,1,17.2-10.129" transform="translate(-318.939 -188.365)" fill="#eeedee"/>
        <path id="Trazado_1015207" data-name="Trazado 1015207" d="M943.479,266.566a12.027,12.027,0,0,1,8.6,4.51c-1.88-.894-3.4-2.426-5.442-2.984-1.066-.477-2.448-.493-3.16-1.526" transform="translate(-685.094 -193.564)" fill="#42596b"/>
        <path id="Trazado_1015208" data-name="Trazado 1015208" d="M497.662,276.521a34.094,34.094,0,0,1,8.559,5.581,62.738,62.738,0,0,0-6.519,7.761c-3.262,4.3-6.417,8.677-9.3,13.246-.723,1.044-1.527,2.036-2.271,3.064a64.339,64.339,0,0,0-3.385,6.17l-.322.011c-10.98.038-21.961-.048-32.936.048-5.86.043-11.714-.3-17.574-.187-.081-.7-.156-1.393-.225-2.084.155-1.093.4-2.164.643-3.235,13.059-.1,26.117-.075,39.171.011,2.052.037,2.833-2.228,3.808-3.642,6.3-9.272,13.391-17.971,20.349-26.744" transform="translate(-314.919 -200.792)" fill="#fbfafb"/>
        <path id="Trazado_1015209" data-name="Trazado 1015209" d="M941.474,282.478c1.886,1.1,3.787,2.48,6,2.759,1.993-.482,3.348-2.26,5.271-2.946-1.152,1.725-3.235,2.432-4.73,3.8-2.721-.145-4.885-2.791-7.676-1.928a24.4,24.4,0,0,1-10.7.584,2.589,2.589,0,0,1-1.521-.873c4.263.707,8.859,1.141,12.914-.68.107-.182.327-.535.434-.712" transform="translate(-673.946 -204.981)" fill="#3b5265"/>
        <path id="Trazado_1015210" data-name="Trazado 1015210" d="M1013.3,294.182c.5.359,1.1.659,1.35,1.269a17.881,17.881,0,0,1,1.719,7.858c.064.632-.455,1.066-.723,1.575-.31-2.325-.037-4.735-.8-6.979-.445-1.269-1.077-2.464-1.543-3.723" transform="translate(-735.795 -213.616)" fill="#3c5c6c"/>
        <path id="Trazado_1015211" data-name="Trazado 1015211" d="M546.244,304.662a62.779,62.779,0,0,1,6.518-7.761,25.772,25.772,0,0,1,4.323,4.007,48.821,48.821,0,0,1,8.19,12.561,46.223,46.223,0,0,1,1.773,29.781l-.193-.059c-1.3-.327-2.517-.927-3.824-1.189-1.8.188-3.567,1.071-5.4.595-3.9-.905-7.933-.37-11.886-.841-2.523-.369-5.3.509-7.574-.953,1.355-.2,2.726-.322,4.1-.471.038-.268.118-.8.155-1.066-1.993-.434-4.023-.638-6.01-1.071-1.725-.348-3.117-1.489-4.7-2.185a36.622,36.622,0,0,0-5.415-.487c.895-1.607,1.677-3.262,2.5-4.9-2.914-.471-5.86-.177-8.79-.236-6.17-.043-12.341.064-18.511.054a34.383,34.383,0,0,0-3.712-2.346c.064-.22.182-.67.246-.889,10.975-.1,21.955-.011,32.936-.048a25.544,25.544,0,0,1-1.655,3.123c5.474-.032,10.959.364,16.428.053,1.805-.08,2.11-3.332.1-3.326-4.831-.482-9.7.161-14.548.139a64.4,64.4,0,0,1,3.385-6.17c2.485.82,5.121.364,7.686.595,1.532.016,3.326.38,4.612-.7a1.67,1.67,0,0,0-1.269-2.641c-2.909-.268-5.849.011-8.758-.316,2.881-4.569,6.036-8.95,9.3-13.246" transform="translate(-361.46 -215.591)" fill="#eee"/>
        <path id="Trazado_1015212" data-name="Trazado 1015212" d="M937.834,300.933c2.9.236,5.635-1.007,8.468-1.441,2.619-.53,5.8-.7,7.949,1.152a27.344,27.344,0,0,1,1.944,6.471,12.627,12.627,0,0,0,2.18,6.16c.675-.969,1.323-1.966,2.083-2.871.578-.488,1.194-.932,1.794-1.4a13.825,13.825,0,0,1,2.582.836,4.45,4.45,0,0,1,.086,7.049c-.97.819-2.309.739-3.487.862-.418,4.815.091,9.641.016,14.462-2.1.279-4.269.059-6.321.552-1.923,2.432-3.781,4.922-5.64,7.408-1.826-2.871-4.28-5.485-5.131-8.865-.048-.2-.156-.595-.2-.793.825.986,2.207.493,3.273.241,2.121-.616,3.38-2.576,4.826-4.1a13.122,13.122,0,0,1-8.447,1.168c-2.035-.45-4.21-.964-5.71-2.507a8.025,8.025,0,0,1-2.143-4.612c-.236-3.91.316-7.8.552-11.7.188-2.71-.247-5.683,1.328-8.077m11.661,2.019c-.552.23-1.746.348-1.505,1.21,1.666.777,3.583.311,5.356.305-.338-1.714-2.475-1.832-3.851-1.516m-12.169,1.511c.241.257.728.782.975,1.044a7.544,7.544,0,0,0,3.9-1.4c-1.055-1.928-3.621-.766-4.88.354m.166,3.653c1.639-.246,3.289-.45,4.906-.836.059-.214.177-.648.236-.862-1.735.246-4.1.011-5.142,1.7m11.645-.536c-.343,1.163-.745,3.466,1.007,3.546,1.06-.455.552-1.816.675-2.716-.461-.514-.9-1.034-1.312-1.575a11.081,11.081,0,0,1,3.1,1.516c.712-1.286-1.034-1.682-1.96-1.9-.723-.2-2.8.209-1.505,1.13m-5.308,3.026a14.277,14.277,0,0,0-1.216,4.783c.8-.048,2.437.38,2.148-1.007a34.207,34.207,0,0,1,.552-7.354c-1.135.852-1.007,2.368-1.484,3.578M940.078,308c-1.189.4-1.178,2.164-.573,3.053,1.794.52,2.555-3.492.573-3.053m20.82,4.864a37.183,37.183,0,0,0-2.137,4.065c1.655-.021,1.628-1.961,2.244-3.1a4.411,4.411,0,0,1,1.269,2.255,9.952,9.952,0,0,1,2.068-2.421c-.739-.166-1.462-.348-2.185-.541a17.957,17.957,0,0,0,2.062-1.484c-1.146.155-2.592.155-3.321,1.221m-13.016,5.613c-.975.514-2.03.107-3.015-.1.353.557.734,1.248,1.516,1.205a4.28,4.28,0,0,0,4.521-3.289c-1.462.022-1.714,1.853-3.021,2.185" transform="translate(-679.588 -217.213)" fill="#f78e59"/>
        <path id="Trazado_1015213" data-name="Trazado 1015213" d="M981.474,312.709c1.376-.316,3.514-.2,3.851,1.516-1.773.005-3.69.471-5.356-.305-.241-.862.953-.98,1.505-1.211" transform="translate(-711.568 -226.97)" fill="#0b2834"/>
        <path id="Trazado_1015214" data-name="Trazado 1015214" d="M941.113,314.918c1.259-1.12,3.825-2.282,4.88-.354a7.55,7.55,0,0,1-3.9,1.4c-.246-.262-.734-.787-.975-1.045" transform="translate(-683.376 -227.668)" fill="#35363b"/>
        <path id="Trazado_1015215" data-name="Trazado 1015215" d="M941.719,327.428c1.039-1.687,3.407-1.452,5.142-1.7-.059.214-.177.648-.236.862-1.617.386-3.267.589-4.906.836" transform="translate(-683.816 -236.525)" fill="#8a4031"/>
        <path id="Trazado_1015216" data-name="Trazado 1015216" d="M983.14,326.842c-1.291-.921.782-1.334,1.505-1.13.927.22,2.673.616,1.96,1.9a11.1,11.1,0,0,0-3.1-1.516c.412.541.852,1.061,1.312,1.575-.123.9.386,2.26-.675,2.716-1.752-.08-1.35-2.384-1.007-3.546" transform="translate(-713.593 -236.475)" fill="#162b29"/>
        <path id="Trazado_1015217" data-name="Trazado 1015217" d="M1010.016,326.129l.53-.809c.407,1.264.359,2.871,1.441,3.8a12.536,12.536,0,0,0,2.292.3c-.76.905-1.408,1.9-2.083,2.871a12.621,12.621,0,0,1-2.18-6.16" transform="translate(-733.409 -236.227)" fill="#232a32"/>
        <path id="Trazado_1015218" data-name="Trazado 1015218" d="M971.667,363.961c1.307-.332,1.558-2.164,3.021-2.185a4.279,4.279,0,0,1-4.521,3.289c-.782.043-1.162-.648-1.516-1.205.985.209,2.041.616,3.016.1" transform="translate(-703.372 -262.699)" fill="#1d2f3c"/>
        <path id="Trazado_1015219" data-name="Trazado 1015219" d="M874.419,740.276a29.248,29.248,0,0,1,6.5-4.408c-1.9,1.714-4.1,3.048-6.144,4.574-.091-.043-.268-.123-.354-.166" transform="translate(-634.947 -534.341)" fill="#1d2f3c"/>
        <path id="Trazado_1015220" data-name="Trazado 1015220" d="M934.228,749.695a14.5,14.5,0,0,0,1.629,1.109c2.86,1.762,5.769,4.912,4.954,8.559-.557,4.242-3.626,7.729-7.226,9.807a5.9,5.9,0,0,1-5.5.4c-3.5-2.094-5.41-5.935-8.565-8.4a64.992,64.992,0,0,0,8.308-5.774c2.271-1.746,4.156-3.932,6.4-5.7" transform="translate(-667.697 -544.381)" fill="#1d2f3c"/>
        <path id="Trazado_1015221" data-name="Trazado 1015221" d="M895.225,763.246a37.71,37.71,0,0,1,5.565-3.83c-1.618,2-4.794,2.689-5.544,5.292-.016-.487-.027-.98-.021-1.462" transform="translate(-650.054 -551.44)" fill="#1d2f3c"/>
        <path id="Trazado_1015222" data-name="Trazado 1015222" d="M961.632,331.537c.477-1.211.348-2.726,1.484-3.578a34.21,34.21,0,0,0-.552,7.354c.289,1.387-1.35.959-2.148,1.007a14.289,14.289,0,0,1,1.216-4.783m-.337,4.1a1.755,1.755,0,0,0,.648-2.319c-.8.027-1.6,1.955-.648,2.319" transform="translate(-697.393 -238.143)" fill="#82432e"/>
        <path id="Trazado_1015223" data-name="Trazado 1015223" d="M948.577,331.411c1.982-.439,1.221,3.573-.573,3.053-.605-.889-.616-2.651.573-3.053" transform="translate(-688.087 -240.625)" fill="#2d2e2b"/>
        <path id="Trazado_1015224" data-name="Trazado 1015224" d="M154.509,335.447a13.823,13.823,0,0,1,4.826-2.662c.943-.354,2.282.364,2.046,1.484a23.846,23.846,0,0,1-3.487,2.994,62.611,62.611,0,0,0-7.933,7.419c-.921,1.034-1.682,2.2-2.512,3.3a246.39,246.39,0,0,0-17.917,22.5,12.713,12.713,0,0,1-2.384,2.614c-1.146.081-1.837-1.05-2.544-1.768-3.669-4.553-7.242-9.175-10.916-13.723-.552-.9-2.025-2.217-.777-3.171a2.512,2.512,0,0,1,3.792.129c3.53,3.31,6.738,6.952,9.984,10.536,6.406-8.4,12.887-16.91,20.981-23.777a23.716,23.716,0,0,0,2.732-2.609,24.97,24.97,0,0,1,4.108-3.267" transform="translate(-81.635 -241.582)" fill="#f58851"/>
        <path id="Trazado_1015225" data-name="Trazado 1015225" d="M97.76,346.483a3.666,3.666,0,0,1,3.691-3.653c5.367-.332,10.75-.048,16.128-.021,6.4,0,12.791-.2,19.181.086,1.6.171,2.48,1.682,2.946,3.064a23.694,23.694,0,0,1-2.732,2.609c-.059-1.023-.134-2.041-.22-3.059-8.881-.321-17.772-.085-26.653-.2-3.181.053-6.369-.118-9.54.123-.289,12.507-.268,25.025-.075,37.526,11.762.134,23.53.113,35.293.086,1.307.128,1.286-1.393,1.253-2.282-.145-8.511.059-17.033-.279-25.539.83-1.1,1.591-2.266,2.512-3.3.445,7.643-.027,15.3.343,22.947-.086,2.635.257,5.308-.209,7.917-.45,2.095-2.737,3.021-4.687,2.9q-16.342-.008-32.69-.038c-1.95.177-4.194-1.1-4.162-3.257-.166-9.111.1-18.228-.15-27.339.032-2.855-.086-5.715.048-8.57" transform="translate(-70.939 -248.826)" fill="#13406c"/>
        <path id="Trazado_1015226" data-name="Trazado 1015226" d="M1021.522,346.021c.728-1.066,2.175-1.066,3.321-1.221a17.926,17.926,0,0,1-2.062,1.484c.723.193,1.446.375,2.185.541a9.953,9.953,0,0,0-2.068,2.421,4.412,4.412,0,0,0-1.269-2.255c-.616,1.135-.589,3.075-2.244,3.1a37.178,37.178,0,0,1,2.137-4.065" transform="translate(-740.212 -250.372)" fill="#793221"/>
        <path id="Trazado_1015227" data-name="Trazado 1015227" d="M962.481,349.856c-.948-.364-.15-2.293.648-2.319a1.755,1.755,0,0,1-.648,2.319" transform="translate(-698.579 -252.359)" fill="#f18f62"/>
        <path id="Trazado_1015228" data-name="Trazado 1015228" d="M107.583,352.407c3.171-.241,6.358-.07,9.539-.123,8.881.113,17.772-.124,26.653.2.086,1.018.161,2.035.22,3.059-8.093,6.867-14.574,15.378-20.981,23.777-3.246-3.583-6.454-7.226-9.984-10.536a2.512,2.512,0,0,0-3.792-.128c-1.248.954.225,2.271.777,3.171,3.674,4.548,7.247,9.17,10.916,13.723.707.718,1.4,1.848,2.544,1.768a12.712,12.712,0,0,0,2.384-2.614,246.4,246.4,0,0,1,17.917-22.5c.338,8.505.134,17.027.279,25.539.032.889.054,2.41-1.253,2.282-11.762.027-23.53.048-35.293-.085-.193-12.5-.214-25.019.075-37.526" transform="translate(-77.961 -255.799)" fill="#fdfcfc"/>
        <path id="Trazado_1015229" data-name="Trazado 1015229" d="M107.53,792.3c7.644-.359,15.308-.08,22.962-.15,4.446.091,8.9-.193,13.337.161.123,1.044.225,2.094.316,3.144a51.475,51.475,0,0,0-5.453,5.078,185.236,185.236,0,0,0-15.64,18.9c-3.219-3.519-6.406-7.086-9.85-10.386-.953-1.077-2.8-1.6-3.846-.364-1.366,1.039.059,2.464.718,3.45,3.53,4.344,7.017,8.72,10.525,13.08.841.868,1.618,2.116,2.919,2.261a9.942,9.942,0,0,0,2.512-2.732,193.489,193.489,0,0,1,17.783-22.459c.1,8.817.225,17.638.155,26.455.118,1.055-.734,1.586-1.682,1.435q-17.395.024-34.789-.08c-.3-4.028-.059-8.067-.129-12.095.081-8.565-.182-17.14.161-25.694" transform="translate(-77.946 -575.184)" fill="#fdfcfc"/>
        <path id="Trazado_1015230" data-name="Trazado 1015230" d="M436.039,376.969c.295-1.318.589-2.63.873-3.948a17.407,17.407,0,0,0,3.5.461c12.871-.021,25.742-.1,38.608-.145-.975,1.414-1.757,3.68-3.808,3.642-13.053-.086-26.112-.113-39.171-.011" transform="translate(-316.624 -270.864)" fill="#e3e3e5"/>
        <path id="Trazado_1015231" data-name="Trazado 1015231" d="M632.482,376.673c.745-1.028,1.548-2.019,2.271-3.064,2.908.327,5.849.048,8.757.316a1.67,1.67,0,0,1,1.269,2.641c-1.286,1.082-3.08.718-4.612.7-2.566-.23-5.2.225-7.686-.595" transform="translate(-459.268 -271.291)" fill="#d6d7d9"/>
        <path id="Trazado_1015232" data-name="Trazado 1015232" d="M1127.314,1255.061a14.083,14.083,0,0,1,.305-1.719c.412,1.044.841,2.089,1.162,3.176.139.552.279,1.1.418,1.666-.455.15-1.355.455-1.8.611a16.864,16.864,0,0,0,.723-1.623c-.064-.321-.2-.953-.263-1.275-8.115,2.7-15.978,6.143-23.894,9.374-.2.391-.595,1.162-.793,1.548a5.148,5.148,0,0,1,.332-3.749c.2.278.6.841.8,1.125,7.558-3.337,15.389-5.972,23.016-9.133" transform="translate(-800.882 -910.097)" fill="#123051"/>
        <path id="Trazado_1015233" data-name="Trazado 1015233" d="M870.514,1284.673c.595-.187.852.375,1.168.766-.064.83-.15,1.677-.268,2.517-.15.048-.445.139-.594.188-.021-.879-.054-1.746-.107-2.609-8.436-.273-16.814,1.221-25.223,1.6a1.732,1.732,0,0,1-1.993-1.227l.059-.482c1.95,1.559,4.531.686,6.786.6,6.69-.873,13.455-.841,20.172-1.35" transform="translate(-612.494 -932.821)" fill="#123051"/>
        <path id="Trazado_1015234" data-name="Trazado 1015234" d="M311.218,376.194c.964-1.3,2.8-.862,4.2-.964,6,.2,12.025-.268,18.013.268-.241,1.189-.4,2.389-.568,3.589l-.83-.487c-6.347-.182-12.727.091-19.074-.16a1.724,1.724,0,0,1-1.741-2.244" transform="translate(-225.928 -272.468)" fill="#c8c6c8"/>
        <path id="Trazado_1015235" data-name="Trazado 1015235" d="M432.731,404.8a25.637,25.637,0,0,1,.241-5.549c.07.691.145,1.387.225,2.084,5.86-.113,11.714.23,17.574.187-.064.22-.182.67-.246.889a34.357,34.357,0,0,1,3.712,2.346c-7.167.15-14.344.268-21.506.043" transform="translate(-314.199 -289.91)" fill="#e3e2e4"/>
        <path id="Trazado_1015236" data-name="Trazado 1015236" d="M964.778,400.809a13.123,13.123,0,0,0,8.447-1.168c-1.446,1.521-2.705,3.482-4.826,4.1-1.066.252-2.448.745-3.273-.241-.134-.895-.241-1.794-.348-2.689" transform="translate(-700.56 -290.194)" fill="#101d1e"/>
        <path id="Trazado_1015237" data-name="Trazado 1015237" d="M614.881,406.481c4.847.021,9.716-.621,14.548-.139,2.014-.005,1.709,3.246-.1,3.326-5.469.311-10.953-.086-16.428-.053a25.576,25.576,0,0,0,1.655-3.123Z" transform="translate(-445.052 -294.929)" fill="#dbdbdd"/>
        <path id="Trazado_1015238" data-name="Trazado 1015238" d="M311.064,408.559c.552-1.232,2.041-1.13,3.171-1.168,5.961-.032,11.923-.139,17.885.064q-.1,1.607-.075,3.224c-6.294.145-12.6.064-18.886.123a1.811,1.811,0,0,1-2.094-2.244" transform="translate(-225.811 -295.781)" fill="#c4c4c8"/>
        <path id="Trazado_1015239" data-name="Trazado 1015239" d="M943.554,417.645a29.909,29.909,0,0,1,6.069-1.028c.852,3.38,3.3,5.994,5.131,8.865,1.859-2.486,3.717-4.976,5.64-7.408,2.052-.493,4.221-.273,6.321-.552a7.54,7.54,0,0,1,1.987.107c-1.387-.321-1.987.782-2.528,1.838a31.043,31.043,0,0,1,2.732,1.933,10.54,10.54,0,0,1-2.78-1.81c-.75.975-1.489,1.95-2.2,2.946a10.912,10.912,0,0,1,1.671,3.3c-.728-.868-1.419-1.773-2.11-2.667-.878,1.178-2.282,2.158-2.625,3.632a31.02,31.02,0,0,0,2.078,2.517,23.873,23.873,0,0,1-2.727-2.234c-.835,1.012-1.655,2.035-2.458,3.08.611.793,1.221,1.6,1.837,2.395-.07.075-.22.225-.295.3-.653-.76-1.328-1.495-2-2.234q-1.374,1.856-2.7,3.734a6.39,6.39,0,0,0-1.4-1.264c-.2.477-.407.959-.616,1.435-.284.514-.557,1.034-.825,1.559-.086-.327-.263-.98-.348-1.307.664-.638,1.248-1.35,1.912-1.993-.6-1.082-1.259-2.121-1.869-3.192-1.034.68-1.971,1.489-2.93,2.266a21.624,21.624,0,0,0,2.314-2.737c-1.468-2.565-3.2-4.976-4.853-7.429a18.11,18.11,0,0,1-2.833,2.678c.862-.98,1.8-1.9,2.758-2.8-.766-1.323-1.553-2.635-2.351-3.937" transform="translate(-684.853 -302.521)" fill="#7196e0"/>
        <path id="Trazado_1015240" data-name="Trazado 1015240" d="M1061.22,713.747h.787c-.128,2.052-.172,4.108-.161,6.165-.15,0-.455,0-.61-.005.016-2.052.059-4.108-.016-6.16" transform="translate(-770.59 -518.278)" fill="#7196e0"/>
        <path id="Trazado_1015241" data-name="Trazado 1015241" d="M910.533,423.088c1.815-.53,3.235-1.837,4.88-2.716q1.2,1.952,2.351,3.937c-.954.9-1.9,1.816-2.759,2.8a18.09,18.09,0,0,0,2.834-2.678c1.649,2.453,3.385,4.864,4.853,7.429a21.634,21.634,0,0,1-2.314,2.737c.959-.777,1.9-1.586,2.93-2.266.61,1.071,1.269,2.11,1.869,3.192-.664.643-1.248,1.355-1.912,1.993.086.327.262.98.348,1.307a5.93,5.93,0,0,0,1.409,2.3,13.419,13.419,0,0,0-.584-3.857c.209-.477.412-.959.616-1.436a6.4,6.4,0,0,1,1.4,1.264c.883-1.253,1.789-2.5,2.7-3.733.67.739,1.344,1.473,2,2.234a13.541,13.541,0,0,0-2,2.855,18.232,18.232,0,0,0,5.747-6.374,40,40,0,0,0-3.455,3.219c-.616-.8-1.227-1.6-1.837-2.394.8-1.044,1.623-2.068,2.458-3.08a23.834,23.834,0,0,0,2.726,2.234,3.622,3.622,0,0,0,1.923-1.414c2.142-2.973,4.317-6.224,7.755-7.815,1.827.9,3.862,1.3,5.624,2.341a7.992,7.992,0,0,0-7.086,3.712c-3,4.714-1.842,10.531-1.253,15.742-4.033-.123-8.067-.032-12.095-.059.257,2.33-.53,5.688,2,7,2.245.852,4.778.605,7.113.311,2-.332,2.651-2.55,3.139-4.216,1.521,5.731,2.164,11.645,3.251,17.467.546,3.84,1.435,7.627,1.885,11.484-6.968,3.326-13.621,7.274-20.455,10.863-4.483,2.512-9.031,4.928-13.407,7.622.2.273.606.825.809,1.1-2.807.659-5.587-.327-8.254-1.114a8.211,8.211,0,0,1-1.355-4.3c.027-3.316.086-6.642.439-9.942,1.265-1.184.964-2.983,1.066-4.537-.064-2.6.552-5.351-.643-7.783.016-.782.059-1.559.1-2.33.477-4.992.359-10.011.434-15.019.139-8.752.011-17.51-.273-26.262,1.526-.9,3.369-1.146,5.019-1.805m8.886,6.1c-.675.263-1.505,1.077-1.152,1.848.761.252,2.662-1.976,1.152-1.848m8.393,9.379c-.584.439.054,1.66.717,1.1.53-.45-.08-1.575-.717-1.1" transform="translate(-656.711 -305.248)" fill="#1c4974"/>
        <path id="Trazado_1015242" data-name="Trazado 1015242" d="M1013.14,422c.541-1.055,1.141-2.159,2.528-1.837a44.036,44.036,0,0,0,3.916,2.464c-3.439,1.591-5.614,4.842-7.756,7.815a3.619,3.619,0,0,1-1.923,1.414,30.848,30.848,0,0,1-2.078-2.517c.343-1.473,1.746-2.453,2.625-3.632.691.895,1.382,1.8,2.11,2.667a10.921,10.921,0,0,0-1.671-3.3c.713-1,1.452-1.971,2.2-2.946a10.53,10.53,0,0,0,2.78,1.81A31.124,31.124,0,0,0,1013.14,422" transform="translate(-731.819 -305.055)" fill="#1b466d"/>
        <path id="Trazado_1015243" data-name="Trazado 1015243" d="M874.947,1262.039c.83-.568,1.607-1.2,2.416-1.794,1.457,1.227,3.091,2.314,4.071,4-1.8-.568-3.048-2.142-4.874-2.641a7.788,7.788,0,0,0,1.741,2.308l-.605-.155c.091.52.273,1.569.364,2.095a26.91,26.91,0,0,1-3.112-3.814" transform="translate(-635.331 -915.11)" fill="#759ce3"/>
        <path id="Trazado_1015244" data-name="Trazado 1015244" d="M332.266,432.479c.128,1.8.279,3.6.536,5.389-6.712-.1-13.428.23-20.134-.016-1.291.059-2.234-1.778-1.21-2.684.584-.621,1.505-.5,2.276-.584,5.876-.1,11.762.048,17.644-.075,1.082.059.68-1.382.889-2.03" transform="translate(-225.845 -314.039)" fill="#c5c5c8"/>
        <path id="Trazado_1015245" data-name="Trazado 1015245" d="M572.373,437.916a36.61,36.61,0,0,1,5.415.487c1.58.7,2.973,1.837,4.7,2.185,1.987.434,4.017.637,6.01,1.071-.037.263-.118.8-.155,1.066-1.371.15-2.742.268-4.1.471,2.271,1.462,5.051.584,7.574.954,3.953.471,7.981-.064,11.886.841,1.832.477,3.6-.407,5.4-.595,1.307.262,2.523.862,3.825,1.189a45.44,45.44,0,0,1-22.116,26.728l-.289-.054a7.145,7.145,0,0,0-3.246.021c-.027-.369-.048-.739-.07-1.1-3.685-1.451-7.183-3.337-10.932-4.617-2.159-.766-4.1-2.035-6.219-2.887-3.042-1.1-5.421-3.669-8.822-3.776.15-.509.316-1.012.493-1.51,3.3-6.947,6.669-13.878,10.648-20.472" transform="translate(-407.531 -317.987)" fill="#f8f7f8"/>
        <path id="Trazado_1015246" data-name="Trazado 1015246" d="M973.441,437.858a11.429,11.429,0,0,1,8.865,7.07c2.941,7.2,3.626,15.035,5,22.625,1.13,6.936,2.346,13.862,3.294,20.825.584,4.746.059,10.081-3.315,13.755-1.95,2.25-4.9,3.117-7.242,4.837-3.246,2.368-6.963,3.953-10.456,5.9-.884.444-1.757.905-2.635,1.36-.032,1.8-.011,3.6.054,5.41-.177.005-.53.005-.707.011-.011-1.628,0-3.257,0-4.88a16.114,16.114,0,0,0-3.466,1.655,9.121,9.121,0,0,0-.214,3.128h-.648c.054-.937.08-1.864.086-2.8-2.26,1.216-4.526,2.416-6.835,3.54a7.323,7.323,0,0,0-2.7,2.11,7.445,7.445,0,0,0-4.307,1.955,14.513,14.513,0,0,1-1.628-1.109c-1.178-2.534-2.951-4.7-4.435-7.044-1.633-2.432-3.026-5.014-4.8-7.338-.2-.273-.606-.825-.809-1.1,4.376-2.694,8.924-5.11,13.407-7.622,6.835-3.589,13.487-7.536,20.456-10.863-.45-3.857-1.339-7.643-1.885-11.484-1.087-5.822-1.73-11.736-3.251-17.467-.059-1.012-.1-2.025-.161-3.032-.589-5.212-1.752-11.029,1.253-15.742a7.991,7.991,0,0,1,7.087-3.712" transform="translate(-680.053 -317.945)" fill="#7798e1"/>
        <path id="Trazado_1015247" data-name="Trazado 1015247" d="M434.22,438.914c12.5.128,25.009.123,37.51.155,1.194.038,3.332.236,3.149,1.88.005,1.966-2.325,1.7-3.674,1.746-12.164-.139-24.334.214-36.5-.027a13.284,13.284,0,0,1-.487-3.755" transform="translate(-315.303 -318.712)" fill="#ececed"/>
        <path id="Trazado_1015248" data-name="Trazado 1015248" d="M955.986,452.551c1.51-.128-.391,2.1-1.152,1.848-.354-.771.477-1.586,1.152-1.848" transform="translate(-693.279 -328.61)" fill="#4273a5"/>
        <path id="Trazado_1015249" data-name="Trazado 1015249" d="M997.113,466.307a39.985,39.985,0,0,1,3.455-3.219,18.231,18.231,0,0,1-5.747,6.374,13.551,13.551,0,0,1,2-2.855c.075-.075.225-.225.295-.3" transform="translate(-722.375 -336.265)" fill="#16344e"/>
        <path id="Trazado_1015250" data-name="Trazado 1015250" d="M975.4,482.04a13.436,13.436,0,0,1,.584,3.857,5.928,5.928,0,0,1-1.409-2.3c.268-.525.541-1.045.825-1.559" transform="translate(-707.676 -350.027)" fill="#143550"/>
        <path id="Trazado_1015251" data-name="Trazado 1015251" d="M989.3,486.512c.638-.471,1.248.653.718,1.1-.664.557-1.3-.664-.718-1.1" transform="translate(-718.202 -353.192)" fill="#122d45"/>
        <path id="Trazado_1015252" data-name="Trazado 1015252" d="M753.842,526.807a63.9,63.9,0,0,0,5.72-8.211l.38-.08c.016,4.976-.391,9.979.128,14.939q-3.093-3.35-6.229-6.647" transform="translate(-547.392 -376.513)" fill="#fafbfc"/>
        <path id="Trazado_1015253" data-name="Trazado 1015253" d="M775.757,518.516l.568.359c.493,2.384.064,4.848.182,7.263-.086,2.437.445,5.019-.621,7.317-.52-4.96-.112-9.963-.128-14.939" transform="translate(-563.206 -376.513)" fill="#04305a"/>
        <path id="Trazado_1015254" data-name="Trazado 1015254" d="M727.771,556.04a77.89,77.89,0,0,0,7.14-7.247q3.142,3.294,6.23,6.647c1.2,1.216,2.464,2.378,3.712,3.562a19.585,19.585,0,0,1,2.394,3.032,46.021,46.021,0,0,0-6.958,6.856c-2.641-2.657-5.549-5.03-8.083-7.793-1.526-1.644-3.01-3.326-4.435-5.056" transform="translate(-528.461 -398.499)" fill="#85888e"/>
        <path id="Trazado_1015255" data-name="Trazado 1015255" d="M158.079,550.963c1.141-.643,3.583-.718,3.465,1.12a12.284,12.284,0,0,1-2.892,2.7,87.726,87.726,0,0,0-8.7,8.056,14.2,14.2,0,0,0-2.609,3.235,99.565,99.565,0,0,0-9.352,10.889q-4.644,5.857-8.806,12.062c-.712.836-1.36,2.2-2.635,2.127a6.707,6.707,0,0,1-1.961-1.805c-3.76-4.639-7.584-9.213-11.371-13.819-.68-.8-1.623-2.019-.477-2.887,1.334-1.751,3.637-.541,4.837.723,3.123,3.128,6.042,6.465,9.084,9.673,6.267-8.533,12.657-17.172,20.97-23.852a20.339,20.339,0,0,0,2.485-2.314,42.841,42.841,0,0,1,7.96-5.908" transform="translate(-81.477 -399.775)" fill="#f68854"/>
        <path id="Trazado_1015256" data-name="Trazado 1015256" d="M157.7,993.208c1.232-.729,3.953-1.237,3.921.9a13.11,13.11,0,0,1-2.989,2.737,97.19,97.19,0,0,0-8.784,8.088,27.571,27.571,0,0,0-2.582,3.15,181.617,181.617,0,0,0-15.506,19.186c-1.393,1.832-2.362,4.033-4.124,5.56-1.237.744-2.217-.787-2.951-1.564-3.926-5.158-8.249-9.995-12.2-15.126-1-1.012.541-2.517,1.628-2.582,2.373-.064,3.835,2.1,5.378,3.573,2.56,2.469,4.719,5.319,7.37,7.7,6.085-8.49,12.6-16.878,20.756-23.493a19.835,19.835,0,0,0,2.534-2.443,50.307,50.307,0,0,1,7.552-5.683" transform="translate(-81.446 -720.747)" fill="#f68854"/>
        <path id="Trazado_1015257" data-name="Trazado 1015257" d="M97.958,564.193a3.642,3.642,0,0,1,4.13-3.562c11.2,0,22.406-.054,33.606.032,1.837-.048,4.462,1.409,3.964,3.508a20.3,20.3,0,0,1-2.485,2.314c-.123-1.066-.273-2.121-.423-3.171-12.041-.128-24.093-.064-36.134-.075-.161,7.29.118,14.585-.145,21.875-.128,3.567.262,7.134.016,10.7a20.2,20.2,0,0,0,.139,5.244,10.485,10.485,0,0,0,2.009.209c9.3-.022,18.6.048,27.9-.016a37.784,37.784,0,0,0,5.828-.145c.953-.161.611-1.419.734-2.083-.07-8.554.08-17.108-.214-25.651a14.205,14.205,0,0,1,2.609-3.235c.145,9.984.354,19.99.113,29.979a3.478,3.478,0,0,1-3.155,3.5c-4.821.391-9.673.016-14.51.247-5.9-.054-11.795.128-17.692-.075-1.768-.145-3.937.4-5.33-1-1.082-.954-1.114-2.475-1.12-3.8.23-11.6.022-23.2.161-34.795" transform="translate(-71.014 -407.075)" fill="#13416e"/>
        <path id="Trazado_1015258" data-name="Trazado 1015258" d="M687.539,582.556a52.611,52.611,0,0,0,11.018-7.3c1.425,1.73,2.909,3.412,4.435,5.056-4.376.739-8.688,1.773-13.021,2.71-.825-.123-1.628-.305-2.432-.466" transform="translate(-499.247 -417.714)" fill="#fbfbfa"/>
        <path id="Trazado_1015259" data-name="Trazado 1015259" d="M790.142,585.939a28.465,28.465,0,0,1,6.642.337c-.053.718-.107,1.436-.145,2.153-1.371.166-2.737.364-4.1.541a19.588,19.588,0,0,0-2.394-3.032" transform="translate(-573.751 -425.436)" fill="#44668c"/>
        <path id="Trazado_1015260" data-name="Trazado 1015260" d="M360.621,595.869c2.228,1.162,4.473,2.309,6.76,3.358-4.7.466-9.422.07-14.135.177-12.844.188-25.694.08-38.544.182-1-.075-2.351.064-2.893-.991a1.691,1.691,0,0,1,1.778-2.394c15.673-.236,31.372.3,47.034-.332" transform="translate(-226.267 -432.682)" fill="#c1c1c5"/>
        <path id="Trazado_1015261" data-name="Trazado 1015261" d="M692.782,596.428c4.333-.937,8.645-1.971,13.021-2.71,2.534,2.764,5.442,5.137,8.083,7.794-.948,1.339-2.314,3.214-1.168,4.837a42.314,42.314,0,0,0,5.4,6.02c-.123.027-.369.086-.5.118-1.044.263-2.073.563-3.112.809-4.874,1.039-9.711,2.255-14.484,3.685-.969.236-2.137.825-2.785-.257-.809-3.385-2.137-6.6-3.074-9.952a79.523,79.523,0,0,0-2.394-7.751c-.868-1.1-.048-2.105,1.007-2.592m6.524,6.727c.22,3.053,1.553,5.887,2.485,8.774.429.889.487,2.17,1.51,2.614-1.382-3.782-2.758-7.563-4-11.388" transform="translate(-502.058 -431.12)" fill="#7599e1"/>
        <path id="Trazado_1015262" data-name="Trazado 1015262" d="M906.428,596.124c1.194,2.432.578,5.185.643,7.783-.1,1.553.2,3.353-1.066,4.537.15-4.108.15-8.216.423-12.32" transform="translate(-657.883 -432.867)" fill="#073665"/>
        <path id="Trazado_1015263" data-name="Trazado 1015263" d="M673.4,603.536c1.125-.546,2.26-1.076,3.391-1.623.8.161,1.607.343,2.432.466-1.055.487-1.875,1.489-1.007,2.593a22.066,22.066,0,0,1-5.48-.964Z" transform="translate(-488.496 -437.071)" fill="#ced5df"/>
        <path id="Trazado_1015264" data-name="Trazado 1015264" d="M611.2,611.594c4.264-.712,8.259-2.351,12.33-3.755l-.664.471a22.064,22.064,0,0,0,5.48.964,79.553,79.553,0,0,1,2.394,7.751c.937,3.348,2.266,6.567,3.075,9.952-4.848,1.3-9.781,2.26-14.553,3.814-2.352.68-4.649,1.649-7.1,1.875-1.655-.005-1.687-2-2-3.187-.53-.386-1.061-.766-1.585-1.146q-.185-1.141-.354-2.266a7.307,7.307,0,0,1-1.955-1.912c-.252-.932.375-1.869.316-2.78-.61-.5-1.269-.921-1.848-1.446a9.586,9.586,0,0,1-.675-3.08,15.941,15.941,0,0,1,3.439-2.164c1.521.107,3.048.257,4.58.3-.3-1.136-.595-2.261-.879-3.391m3.787,1.339c1.2,2.844,2.924,5.988,5.994,7.108-1.205-1.57-2.866-2.748-3.835-4.5-.685-.889-.964-2.271-2.159-2.609m-3.519,6.712c-1.152.348-2.6.4-3.326,1.51,2.421-.477,4.794-1.173,7.22-1.639a4.14,4.14,0,0,0,2.228-1.055,60.793,60.793,0,0,0-6.122,1.184m-.273,4.585c-.846.332-2.116.375-2.293,1.468,3.048-1.039,6.224-1.65,9.266-2.71-.161-.086-.477-.262-.632-.348a57.758,57.758,0,0,0-6.342,1.591m.98,4.13a3.554,3.554,0,0,0-1.639,1.093c2.405-.466,4.639-1.526,7.028-2.041a2.481,2.481,0,0,1,2.153.364c-.22-.509-.429-1.023-.621-1.532a68.8,68.8,0,0,0-6.92,2.116" transform="translate(-438.633 -441.374)" fill="#f68f58"/>
        <path id="Trazado_1015265" data-name="Trazado 1015265" d="M368.984,627.795c8.415-.059,16.84-.627,25.255-.305l.557,1.393a15.954,15.954,0,0,0-3.439,2.164c-12.459.279-24.917.252-37.382.209-13.578-.037-27.162.053-40.74-.037-1.184.155-2.528-1.071-1.971-2.266a1.636,1.636,0,0,1,1.537-1.029c18.726-.112,37.457-.005,56.182-.128" transform="translate(-225.926 -455.572)" fill="#c3c3c6"/>
        <path id="Trazado_1015266" data-name="Trazado 1015266" d="M643.963,626.439c1.195.337,1.473,1.719,2.159,2.609.969,1.751,2.63,2.93,3.835,4.5-3.069-1.12-4.794-4.264-5.994-7.108" transform="translate(-467.605 -454.88)" fill="#863b25"/>
        <path id="Trazado_1015267" data-name="Trazado 1015267" d="M720.241,628.18c1.237,3.825,2.614,7.606,4,11.388-1.023-.444-1.082-1.725-1.51-2.614-.932-2.887-2.266-5.72-2.485-8.773" transform="translate(-522.993 -456.144)" fill="#24476f"/>
        <path id="Trazado_1015268" data-name="Trazado 1015268" d="M622.294,647.807a60.84,60.84,0,0,1,6.122-1.184,4.14,4.14,0,0,1-2.228,1.055c-2.426.466-4.8,1.162-7.22,1.639.729-1.114,2.175-1.163,3.326-1.511" transform="translate(-449.455 -469.537)" fill="#a44c2e"/>
        <path id="Trazado_1015269" data-name="Trazado 1015269" d="M312.6,661.429a22.349,22.349,0,0,1,4.194-.171q32.934-.177,65.872-.113c1.43.091,3.482-.23,4.178,1.4.15,1.355-1.4,2.046-2.544,2.008-19.267-.128-38.539-.091-57.806-.037-4.483-.1-8.972.268-13.444-.08a1.553,1.553,0,0,1-.45-3.01" transform="translate(-226.239 -480.079)" fill="#c1c2c3"/>
        <path id="Trazado_1015270" data-name="Trazado 1015270" d="M624.037,663.469a57.818,57.818,0,0,1,6.342-1.591c.155.086.471.263.632.348-3.042,1.06-6.219,1.671-9.266,2.71.177-1.093,1.446-1.136,2.292-1.468" transform="translate(-451.472 -480.614)" fill="#a0482c"/>
        <path id="Trazado_1015271" data-name="Trazado 1015271" d="M215.566,661.938c.128-.032.375-.091.5-.118,2.442,2.282,4.906,4.563,7.119,7.081q.008,70.349.059,140.721c-.118,8.436.268,16.883-.07,25.309a8.572,8.572,0,0,1-3.873,4.89c-2.025,1.12-4.419.857-6.642.916-21.774-.2-43.542.016-65.315-.011-24.993-.07-49.985,0-74.978,0-21.243-.118-42.486,0-63.729.011-2.737.021-5.946.032-7.852-2.292.113-1.628-.664-3.128-.734-4.735a27.13,27.13,0,0,1,.83-9.293c.536.005,1.066.032,1.6.08-.016-.236-.053-.7-.075-.937.755,0,1.51.011,2.271.027-.1.45-.182.911-.268,1.371,1.329-.589,2.646-1.2,3.921-1.9.969-.021,1.939-.08,2.908-.085.005,1.077.032,2.159.048,3.246,12.154.236,24.307-.032,36.466.027q80.321.064,160.641.016a34.933,34.933,0,0,0,6.262-.2c1.457-.525,1.259-2.325,1.318-3.562-.166-21.066-.053-42.127-.07-63.194.011-30-.08-60.007.021-90.007-.059-2.459.4-4.976-.359-7.365" transform="translate(0 -480.572)" fill="#1d4975"/>
        <path id="Trazado_1015272" data-name="Trazado 1015272" d="M242.255,663.059c1.039-.246,2.067-.546,3.112-.809.755,2.389.3,4.906.359,7.365-.1,30-.011,60.007-.021,90.008.016,21.066-.1,42.127.07,63.194-.059,1.237.139,3.037-1.318,3.562a34.88,34.88,0,0,1-6.261.2q-80.321-.072-160.641-.016c-12.159-.059-24.313.209-36.466-.027-.016-1.088-.043-2.169-.048-3.246q95.883.088,191.772.022c3.166-.054,6.336.171,9.5-.1l.027-.664c-.07-53.161.107-106.328-.08-159.49" transform="translate(-29.801 -480.884)" fill="#164067"/>
        <path id="Trazado_1015273" data-name="Trazado 1015273" d="M629.349,677.157a68.771,68.771,0,0,1,6.92-2.116c.193.509.4,1.023.621,1.532a2.48,2.48,0,0,0-2.153-.364c-2.389.514-4.623,1.575-7.028,2.041a3.555,3.555,0,0,1,1.639-1.093" transform="translate(-455.803 -490.172)" fill="#a7502f"/>
        <path id="Trazado_1015274" data-name="Trazado 1015274" d="M870.885,691.372a55.818,55.818,0,0,0,6.556.354c.1.032.316.091.423.123,2.668.787,5.448,1.773,8.254,1.114,1.778,2.325,3.171,4.906,4.8,7.338,1.484,2.346,3.257,4.51,4.435,7.044-2.244,1.773-4.13,3.958-6.4,5.7a64.986,64.986,0,0,1-8.308,5.774c-.638.219-1.254.964-1.966.7a9.27,9.27,0,0,1-1.853-1.976c-.054-.15-.161-.455-.214-.611-.927-.434-2.212-.535-2.6-1.634.75-2.6,3.926-3.294,5.544-5.292a37.709,37.709,0,0,0-5.565,3.83,12.029,12.029,0,0,1-2.785-1.371c-1.237-1.216-1.125-3.273-2.56-4.333,2.046-1.526,4.242-2.86,6.144-4.574a29.246,29.246,0,0,0-6.5,4.408c-1.709-.429-2.325-2.1-2.308-3.7,2.8-2.528,6.438-3.99,8.865-6.936-2.437-.905-4.789-3.107-3.969-5.962m.375,19.867a21.8,21.8,0,0,0,5.8-4.521,12.947,12.947,0,0,0-5.8,4.521" transform="translate(-628.826 -502.031)" fill="#f88f58"/>
        <path id="Trazado_1015275" data-name="Trazado 1015275" d="M1057.211,696.122c3.492-1.95,7.21-3.535,10.456-5.9a6.076,6.076,0,0,1-1.559,5.6l-.434.112c-.836.214-1.655.45-2.48.643-.123.027-.37.07-.493.091-1.205-.021-2.4-.053-3.6,0h-.788l-1.1-.541" transform="translate(-767.679 -501.193)" fill="#1a3d5c"/>
        <path id="Trazado_1015276" data-name="Trazado 1015276" d="M1079.029,711.711c.825-.193,1.644-.429,2.48-.643,1.928,1.58,1.071,4.285.911,6.411a13.644,13.644,0,0,1-3.4.563c.075-2.11.1-4.221.011-6.331" transform="translate(-783.514 -516.332)" fill="#1c2e3b"/>
        <path id="Trazado_1015277" data-name="Trazado 1015277" d="M1047.549,713.133c.879-.455,1.752-.916,2.635-1.361l1.1.541c.075,2.051.032,4.108.016,6.16-1.237.011-2.469.037-3.7.07-.064-1.8-.086-3.61-.054-5.41" transform="translate(-760.652 -516.844)" fill="#1b2e3f"/>
        <path id="Trazado_1015278" data-name="Trazado 1015278" d="M1063.665,713.669c1.2-.054,2.4-.021,3.6,0q-.016,3.117-.086,6.245-1.848-.024-3.68-.08c-.011-2.057.032-4.114.161-6.165" transform="translate(-772.247 -518.2)" fill="#1c2d3c"/>
        <path id="Trazado_1015279" data-name="Trazado 1015279" d="M1031.907,720.37a16.106,16.106,0,0,1,3.465-1.655c0,1.623-.011,3.251,0,4.88-1.232.005-2.458-.054-3.68-.1a9.124,9.124,0,0,1,.214-3.128" transform="translate(-749.129 -521.885)" fill="#1b2f43"/>
        <path id="Trazado_1015280" data-name="Trazado 1015280" d="M1004.755,729.511c2.309-1.125,4.574-2.325,6.835-3.541-.005.932-.032,1.859-.086,2.8-2.276.032-4.462.959-6.749.745" transform="translate(-729.589 -527.154)" fill="#18334b"/>
        <path id="Trazado_1015281" data-name="Trazado 1015281" d="M908.154,735.041a13.648,13.648,0,0,0,3.4-.562c-.225.246-.68.75-.905,1,2.833,15.93,4.955,31.972,7.756,47.9,1.414,7.719,2.475,15.528,4.708,23.07,3.707,12.882,7.1,25.849,10.284,38.871,2.094,8.382,3.819,16.861,6.2,25.164-.627.139-1.243.294-1.848.471a34.925,34.925,0,0,0,1.634,5.619,14.029,14.029,0,0,0-.305,1.72c-7.628,3.16-15.458,5.8-23.016,9.132-.2-.284-.6-.846-.8-1.125a30.3,30.3,0,0,1,5.292-6.786c1.323.761,2.475,1.778,3.776,2.592-.9-1.441-2.389-2.357-3.374-3.717,1.944.011,3.862.386,5.811.439-1.532-1.028-3.481-.868-5.217-1.253,1.232-1.628,3.364-.889,5.12-1.136a7.982,7.982,0,0,0-3.7-.525c.112-.348.332-1.034.445-1.382a77.633,77.633,0,0,0-7.767,2.019c-5.2-19.529-10.986-38.9-16.015-58.475-2.973-12.946-5.554-25.973-8.318-38.957-1.553-7.488-3.058-14.987-4.376-22.512-1,4.676-1.307,9.47-1.95,14.21q-2.234,16.824-3.53,33.756c-1.419,22.695-3.664,45.325-6.369,67.9-.016.171-.054.514-.075.685-.193-.268-.578-.8-.771-1.06-.048,1.532-.113,3.074-.188,4.617-.819.155-1.623.321-2.432.487a13.278,13.278,0,0,0,.3,6.32c-.021.8-.054,1.612-.091,2.426-.316-.391-.573-.953-1.168-.766-6.717.509-13.482.477-20.172,1.35-2.255.086-4.837.959-6.786-.6,2.475-2.411,5.646-3.883,8.554-5.672a26.883,26.883,0,0,0,3.112,3.814c-.091-.525-.273-1.575-.364-2.094l.605.155a7.786,7.786,0,0,1-1.741-2.309c1.827.5,3.075,2.073,4.874,2.641-.98-1.687-2.614-2.775-4.071-4,1.767-.359,3.417.595,5.115.932-.884-1.243-2.517-1.307-3.851-1.708.37-.407.745-.82,1.125-1.221l-1.093-.343c-1.425-1.237-3.406-.836-5.131-1-.3-.766-.589-1.527-.884-2.282.027-.616.07-1.232.123-1.837,2.807-31.227,4.7-62.529,7.579-93.752.782-9.491,2.127-18.929,2.989-28.415a9.261,9.261,0,0,0,1.853,1.977c.712.268,1.328-.477,1.966-.7,3.155,2.464,5.067,6.3,8.565,8.4a5.9,5.9,0,0,0,5.5-.4c3.6-2.078,6.669-5.565,7.226-9.807.814-3.648-2.094-6.8-4.954-8.559a7.442,7.442,0,0,1,4.307-1.955,7.323,7.323,0,0,1,2.7-2.11c2.287.215,4.472-.712,6.749-.744h.648c1.221.043,2.448.1,3.68.1.177-.005.53-.005.707-.011,1.227-.032,2.458-.059,3.7-.07.156.005.461.005.611.005q1.832.056,3.68.08c.139,0,.423-.005.568-.005m-10.407,2.009a8.829,8.829,0,0,0,5.919,5.694c1.071.252,2.383.616,3.326-.182-2.394-.386-5-.868-6.765-2.673-.921-.868-1.259-2.319-2.48-2.839M927.624,868.4c-3,1.077-6.187,1.617-9.084,2.957,2.6-.268,5.014-1.3,7.515-1.976q5.166-1.269,10.187-3.037c-2.957.241-5.763,1.312-8.618,2.057m-74.437,3.332c3.171.552,6.428.246,9.636.461,3.283.08,6.556.611,9.839.305-1.06-.948-2.565-.75-3.878-.873a149.936,149.936,0,0,0-15.6.107m79.52.064a1.939,1.939,0,0,0-1.462,2.357c.294,1.746,3.181,2.046,3.61.225a1.766,1.766,0,0,0-2.148-2.582m-67.666,5.538c-.107.857-.621,1.826-.1,2.657a1.969,1.969,0,0,0,3.005.423c.675-.879.375-2.025.305-3.021a19.485,19.485,0,0,0-3.208-.059" transform="translate(-612.65 -533.332)" fill="#1c4973"/>
        <path id="Trazado_1015282" data-name="Trazado 1015282" d="M1041.016,743.867c1.221.52,1.559,1.971,2.48,2.839,1.768,1.8,4.371,2.287,6.765,2.673-.943.8-2.255.434-3.327.182a8.831,8.831,0,0,1-5.919-5.694" transform="translate(-755.919 -540.149)" fill="#15324b"/>
        <path id="Trazado_1015283" data-name="Trazado 1015283" d="M885.235,751.927a12.948,12.948,0,0,1,5.8-4.521,21.793,21.793,0,0,1-5.8,4.521" transform="translate(-642.801 -542.719)" fill="#9b5237"/>
        <path id="Trazado_1015284" data-name="Trazado 1015284" d="M157.348,774.842c1.178-.67,2.876-1.484,4.071-.412.7,1.312-.894,2.035-1.692,2.748a58.078,58.078,0,0,0-9.641,8.731,24.491,24.491,0,0,0-2.448,3.155,193.559,193.559,0,0,0-17.783,22.459,9.937,9.937,0,0,1-2.512,2.732c-1.3-.145-2.078-1.393-2.919-2.26-3.508-4.36-7-8.736-10.525-13.08-.659-.986-2.084-2.41-.718-3.449,1.045-1.237,2.893-.712,3.846.364,3.444,3.3,6.631,6.867,9.85,10.386a185.225,185.225,0,0,1,15.64-18.9,51.479,51.479,0,0,1,5.453-5.078,29.5,29.5,0,0,0,2.416-2.137,43.822,43.822,0,0,1,6.963-5.26" transform="translate(-81.769 -561.965)" fill="#f48651"/>
        <path id="Trazado_1015285" data-name="Trazado 1015285" d="M97.862,785.905c.048-2.335,2.684-3.444,4.713-3.305,11.066.064,22.138-.026,33.209.075,1.987-.145,4.14,1.693,3.771,3.728a29.587,29.587,0,0,1-2.416,2.137c-.091-1.05-.193-2.1-.316-3.144-4.44-.354-8.892-.07-13.337-.161-7.654.07-15.319-.209-22.962.15-.343,8.554-.081,17.129-.161,25.694.07,4.028-.171,8.067.128,12.095q17.395.1,34.789.08c.948.15,1.8-.38,1.682-1.436.07-8.817-.059-17.638-.156-26.455a24.469,24.469,0,0,1,2.448-3.155c.455,9.866.059,19.749.236,29.621a3.8,3.8,0,0,1-4.21,4.022c-10.729-.054-21.457-.048-32.186-.038-1.4-.037-3,.145-4.113-.905-1.371-.932-1.211-2.742-1.286-4.189.021-4.274-.022-8.549.032-12.823.279-7.333-.3-14.665.134-21.993" transform="translate(-70.939 -568.266)" fill="#15426d"/>
        <path id="Trazado_1015286" data-name="Trazado 1015286" d="M312.71,818.78c8.688-.278,17.4-.107,26.1-.166,23.718-.005,47.435-.086,71.153.08a1.732,1.732,0,0,1,1.4,2.742c-.761.777-1.955.536-2.925.621-31.624-.081-63.247.021-94.871-.054-1.95.386-2.855-2.7-.862-3.225" transform="translate(-226.257 -594.408)" fill="#c3c3c7"/>
        <path id="Trazado_1015287" data-name="Trazado 1015287" d="M311.85,851.088a10.359,10.359,0,0,1,3.594-.316c30.343-.059,60.682.064,91.025-.053a19.791,19.791,0,0,1,4.285.209,1.74,1.74,0,0,1-.4,2.834,9.634,9.634,0,0,1-2.25.193c-14.65-.1-29.3.15-43.943.123-14.285.011-28.571-.064-42.856.1-2.865-.037-5.742.171-8.6-.086a1.659,1.659,0,0,1-.852-3" transform="translate(-225.933 -617.728)" fill="#c0c0c3"/>
        <path id="Trazado_1015288" data-name="Trazado 1015288" d="M312.091,884.207c.723-.568,1.725-.31,2.582-.4,23.209,0,46.423-.043,69.632-.011.932-.048,2.164.134,2.2,1.328.107,1.441-1.489,2.025-2.678,1.928q-35.368.04-70.741.011a1.638,1.638,0,0,1-.991-2.855" transform="translate(-226.243 -641.747)" fill="#c4c5c7"/>
        <path id="Trazado_1015289" data-name="Trazado 1015289" d="M98.044,1006.418a3.831,3.831,0,0,1,4.156-4.215c11.264.08,22.534-.064,33.8.112,1.864-.16,4.285,1.591,3.84,3.546a19.875,19.875,0,0,1-2.534,2.443c-.107-1.12-.23-2.228-.354-3.337-12.084-.129-24.184-.429-36.262-.064.011,12.587-.005,25.185.021,37.778,11.768.059,23.536.037,35.3,0,1.527.273,1.119-1.6,1.205-2.528-.1-8.367.145-16.744-.262-25.1a27.57,27.57,0,0,1,2.582-3.149c.214,9.6.38,19.207.23,28.817-.048,1.27-.161,2.727-1.237,3.6-1.253,1.194-3.117.894-4.7.98-10.7-.032-21.393.07-32.085-.021a3.414,3.414,0,0,1-3.765-3.477c-.081-11.794.059-23.589.059-35.384" transform="translate(-71.133 -727.717)" fill="#14436f"/>
        <path id="Trazado_1015290" data-name="Trazado 1015290" d="M312.829,1039.545c7.086-.289,14.205-.027,21.307-.107,23.739-.032,47.484.059,71.223-.021a42.656,42.656,0,0,1,5.238.134,1.428,1.428,0,0,1,1.189,1.912c-.284,1.2-1.693,1.184-2.667,1.232q-47.13-.08-94.266.043c-.921-.027-2.014.038-2.625-.793-.841-.659-.187-2.009.6-2.4" transform="translate(-226.435 -754.748)" fill="#c2c1c4"/>
        <path id="Trazado_1015291" data-name="Trazado 1015291" d="M312.019,1072.162c.691-.562,1.666-.364,2.5-.429q46.881.024,93.762-.011c1,.134,2.512-.262,3.01.9a1.561,1.561,0,0,1-1.446,2.309q-45.515.249-91.036.23a43.327,43.327,0,0,1-6.353-.182,1.66,1.66,0,0,1-.434-2.817" transform="translate(-226.129 -778.217)" fill="#c3c4c6"/>
        <path id="Trazado_1015292" data-name="Trazado 1015292" d="M312.781,1104.08c23.509-.386,47.05-.091,70.57-.166.959.118,2.26-.188,2.882.771a1.587,1.587,0,0,1-.8,2.373,31.317,31.317,0,0,1-5.356.182c-22.137-.059-44.275.011-66.413-.005-1.912.482-2.812-2.839-.879-3.155" transform="translate(-226.339 -801.565)" fill="#c4c4c6"/>
        <path id="Trazado_1015293" data-name="Trazado 1015293" d="M878.311,1234.961a150.02,150.02,0,0,1,15.6-.107c1.312.123,2.817-.075,3.878.873-3.283.305-6.556-.225-9.84-.305-3.208-.214-6.465.091-9.636-.461" transform="translate(-637.773 -896.564)" fill="#163757"/>
        <path id="Trazado_1015294" data-name="Trazado 1015294" d="M865.684,1239.729c.295.755.584,1.516.884,2.282,1.725.161,3.706-.241,5.131,1a62.6,62.6,0,0,0-6.337-.15q.185-1.567.321-3.128" transform="translate(-628.371 -900.212)" fill="#08315f"/>
        <path id="Trazado_1015295" data-name="Trazado 1015295" d="M19.193,1247.6q103.637.024,207.278-.032l-.027.664c-3.16.268-6.331.043-9.5.1q-95.883.064-191.772-.021c-.969.005-1.939.064-2.908.086a24.279,24.279,0,0,1-2.582-.348Z" transform="translate(-13.937 -905.908)" fill="#052c56"/>
        <path id="Trazado_1015296" data-name="Trazado 1015296" d="M920.717,1255.992a19.438,19.438,0,0,1,3.208.059c.07,1,.37,2.142-.305,3.021a1.97,1.97,0,0,1-3.005-.423c-.52-.83-.005-1.8.1-2.657" transform="translate(-668.326 -911.992)" fill="#72a1d4"/>
        <path id="Trazado_1015297" data-name="Trazado 1015297" d="M1104.572,1272.044c7.917-3.23,15.78-6.674,23.895-9.374.064.321.2.953.262,1.275a16.834,16.834,0,0,1-.723,1.623c-6.369,2.314-12.807,4.478-19.015,7.2-1.628.67-3.5,2.03-5.212.825.2-.386.595-1.157.793-1.548" transform="translate(-801.494 -916.871)" fill="#154673"/>
        <path id="Trazado_1015298" data-name="Trazado 1015298" d="M845.169,1289.429c8.409-.375,16.787-1.87,25.223-1.6.054.862.086,1.73.107,2.609-8.254.021-16.5.482-24.746.471-.83-.075-1.918.1-2.421-.728-.52-.546-.145-1.339-.156-1.982a1.733,1.733,0,0,0,1.993,1.227" transform="translate(-612.173 -935.118)" fill="#124471"/>
      </g>
    </g>
    <rect id="Rectángulo_461997" data-name="Rectángulo 461997" width="396" height="423" transform="translate(1017.711 22321)" fill="none"/>
  </g>
</svg>
